<svg xmlns="http://www.w3.org/2000/svg" xmlns:xlink="http://www.w3.org/1999/xlink" version="1.1" x="0px" y="0px" width="432px" height="288px" viewBox="0 0 432 288" enable-background="new 0 0 432 288" xml:space="preserve">
<g id="Layer_5_copy">
	<g>
		<path fill="#FFFFFF" d="M242.681 173.528h-71.653c-6.356 0-11.527-5.172-11.527-11.528v-54.973 c0-6.356 5.171-11.527 11.527-11.527h71.653c6.356 0 11.5 5.2 11.5 11.527V162 C254.208 168.4 249 173.5 242.7 173.528z M171.027 101.5c-3.048 0-5.527 2.479-5.527 5.527V162 c0 3 2.5 5.5 5.5 5.528h71.653c3.048 0 5.527-2.48 5.527-5.528v-54.973c0-3.048-2.479-5.527-5.527-5.527H171.027z"/>
	</g>
	<path fill="#00ADC9" d="M212.591 146.911c-2.555 1.931-5.725 3.089-9.174 3.089c-8.422 0-15.25-6.828-15.25-15.25 c0-8.423 6.828-15.251 15.25-15.251c3.449 0 6.6 1.2 9.2 3.089l7.894-7.895c-4.543-3.764-10.375-6.027-16.735-6.027 c-14.498 0-26.25 11.752-26.25 26.25c0 14.5 11.8 26.2 26.2 26.25c6.446 0 12.346-2.327 16.914-6.183L212.591 146.911z"/>
</g>
<g id="Layer_6_copy">
	<g>
		<path fill="#00A850" d="M238.833 135.083c0-8.308-3.862-15.708-9.886-20.518l-20.184 20.185l20.556 20.6 C235.131 150.5 238.8 143.2 238.8 135.083z"/>
	</g>
</g>
</svg>
