<?xml version="1.0" encoding="utf-8"?>
<!-- Generator: Adobe Illustrator 16.0.4, SVG Export Plug-In . SVG Version: 6.00 Build 0)  -->
<!DOCTYPE svg PUBLIC "-//W3C//DTD SVG 1.1//EN" "http://www.w3.org/Graphics/SVG/1.1/DTD/svg11.dtd">
<svg version="1.1" id="Layer_1" xmlns="http://www.w3.org/2000/svg" xmlns:xlink="http://www.w3.org/1999/xlink" x="0px" y="0px"
	 width="96.1px" height="79.5px" viewBox="158.7 94.5 96.1 79.5" enable-background="new 158.7 94.5 96.1 79.5"
	 xml:space="preserve">
<g id="Layer_5_copy">
	<g>
		<path fill="#FFFFFF" d="M242.7,173.5H171c-6.4,0-11.5-5.2-11.5-11.5v-55c0-6.4,5.2-11.5,11.5-11.5h71.7c6.4,0,11.5,5.2,11.5,11.5
			v55C254.2,168.4,249,173.5,242.7,173.5z M171,101.5c-3,0-5.5,2.5-5.5,5.5v55c0,3,2.5,5.5,5.5,5.5h71.7c3,0,5.5-2.5,5.5-5.5v-55
			c0-3-2.5-5.5-5.5-5.5H171z"/>
	</g>
	<path fill="#00ADC9" d="M212.6,146.9c-2.6,1.9-5.7,3.1-9.2,3.1c-8.4,0-15.2-6.8-15.2-15.2c0-8.4,6.8-15.3,15.2-15.3
		c3.4,0,6.6,1.2,9.2,3.1l7.9-7.9c-4.5-3.8-10.4-6-16.7-6c-14.5,0-26.2,11.8-26.2,26.2c0,14.5,11.8,26.2,26.2,26.2
		c6.4,0,12.3-2.3,16.9-6.2L212.6,146.9z"/>
</g>
<g id="Layer_6_copy">
	<g>
		<path fill="#00A850" d="M238.8,135.1c0-8.3-3.9-15.7-9.9-20.5l-20.2,20.2l20.6,20.6C235.1,150.5,238.8,143.2,238.8,135.1z"/>
	</g>
</g>
</svg>