<svg width="95" height="78" xmlns="http://www.w3.org/2000/svg" xmlns:svg="http://www.w3.org/2000/svg">
<g>
	<title>Layer 1</title>
	<g id="Layer_5_copy">
		<g id="svg_1">
			<path id="svg_2" d="m83.17999,78.028l-71.653,0c-6.356,0 -11.527,-5.172 -11.527,-11.528l0,-54.973c0,-6.356 5.171,-11.527 11.527,-11.527l71.653,0c6.356,0 11.5,5.2 11.5,11.527l0,54.973c0.027,6.4 -5.181,11.5 -11.481,11.528l-0.019,0zm-71.654,-72.028c-3.048,0 -5.527,2.479 -5.527,5.527l0,54.973c0,3 2.5,5.5 5.5,5.528l71.653,0c3.048,0 5.527,-2.48 5.527,-5.528l0,-54.973c0,-3.048 -2.479,-5.527 -5.527,-5.527l-71.626,0z" fill="#FFFFFF"/>
		</g>
		<path id="svg_3" d="m53.08999,51.411c-2.555,1.931 -5.725,3.089 -9.174,3.089c-8.422,0 -15.25,-6.828 -15.25,-15.25c0,-8.423 6.828,-15.251 15.25,-15.251c3.449,0 6.6,1.2 9.2,3.089l7.894,-7.895c-4.543,-3.764 -10.375,-6.027 -16.735,-6.027c-14.498,0 -26.25,11.752 -26.25,26.25c0,14.5 11.8,26.2 26.2,26.25c6.446,0 12.346,-2.327 16.914,-6.183l-8.049,-8.072z" fill="#00ADC9"/>
	</g>
	<g id="Layer_6_copy">
		<g id="svg_4">
			<path id="svg_5" d="m79.33199,39.583c0,-8.308 -3.862,-15.708 -9.886,-20.518l-20.184,20.185l20.556,20.6c5.812,-4.85 9.481,-12.15 9.481,-20.267l0.033,0z" fill="#00A850"/>
		</g>
	</g>
</g>
</svg>
